<svg xmlns="http://www.w3.org/2000/svg" style="display: none;">
  <symbol id="icon-moon" viewBox="0 0 16 16">
    <path d="M6 0a6 6 0 0 0 0 12c.8 0 1.6-.2 2.3-.5a.5.5 0 1 0-.4-.9A5 5 0 1 1 9.6 1.8a.5.5 0 1 0 .9-.4A6 6 0 0 0 6 0z"></path>
  </symbol>
  <symbol id="icon-sun" viewBox="0 0 16 16">
    <path d="M8 4.5a3.5 3.5 0 1 0 0 7 3.5 3.5 0 0 0 0-7zM8 1a.5.5 0 0 1 .5.5V3a.5.5 0 0 1-1 0V1.5A.5.5 0 0 1 8 1zm0 11a.5.5 0 0 1 .5.5V15a.5.5 0 0 1-1 0v-1.5A.5.5 0 0 1 8 12zM3.3 3.3a.5.5 0 0 1 .7 0l1.1 1.1a.5.5 0 1 1-.7.7L3.3 4a.5.5 0 0 1 0-.7zm7.6 7.6a.5.5 0 0 1 .7 0l1.1 1.1a.5.5 0 0 1-.7.7L10.9 11a.5.5 0 0 1 0-.7zM1 8a.5.5 0 0 1 .5-.5H3a.5.5 0 0 1 0 1H1.5A.5.5 0 0 1 1 8zm11 0a.5.5 0 0 1 .5-.5H15a.5.5 0 0 1 0 1h-1.5A.5.5 0 0 1 12 8zM3.3 12.7a.5.5 0 0 1 0-.7l1.1-1.1a.5.5 0 0 1 .7.7L4 12.7a.5.5 0 0 1-.7 0zm7.6-7.6a.5.5 0 0 1 0-.7l1.1-1.1a.5.5 0 0 1 .7.7L11.6 5a.5.5 0 0 1-.7 0z"></path>
  </symbol>
</svg>
